<svg xmlns="http://www.w3.org/2000/svg" version="1.1" xmlns:xlink="http://www.w3.org/1999/xlink" xmlns:svgjs="http://svgjs.dev/svgjs" width="1000" height="1000" viewBox="0 0 1000 1000"><rect width="1000" height="1000" fill="#ffffff"></rect><g transform="matrix(0.7,0,0,0.7,150.0000000000001,106.25)"><svg viewBox="0 0 320 360" data-background-color="#ffffff" preserveAspectRatio="xMidYMid meet" height="1125" width="1000" xmlns="http://www.w3.org/2000/svg" xmlns:xlink="http://www.w3.org/1999/xlink"><g id="tight-bounds" transform="matrix(1,0,0,1,0,0)"><svg viewBox="0 0 320 360" height="360" width="320"><g><svg></svg></g><g><svg viewBox="0 0 320 360" height="360" width="320"><g><path xmlns="http://www.w3.org/2000/svg" d="M20.961 227.22l3.726 4.658-1.863-6.056c-0.466-2.795-3.726 0.466-1.863 1.398M25.153 224.425c1.397 2.329 2.795 4.658 2.795 6.987 0 3.261 2.795 4.658 5.123 5.589-3.261-3.726-5.124-13.974-7.918-12.576M204.017 26.929c7.918 0 15.371-0.932 23.756 0.931 20.495 5.124 37.729 15.371 49.374 29.811l32.606 52.169c1.397 13.042 4.192 27.482 3.726 43.319 3.261 0 2.795-4.658 6.521-5.59-3.726 9.316-5.59 20.961-6.521 34.469-2.329-7.453 0-18.632 0.466-24.687-3.261 5.124-5.124 1.397-5.124-0.932 0.466-3.726-1.397-3.261-2.795-4.658-5.124-4.658-8.384-9.782-12.11-17.7 2.329-6.055 2.795-14.905-4.658-19.563-2.329-1.397-5.124-3.726-6.521-7.453-1.863-5.124-5.124-11.179-4.193-19.097 0.466-2.329-6.987 5.124-11.179 1.863-18.166-12.576-36.332-27.016-58.224-39.127-11.645 0-20.029-4.192-24.221-9.316-3.726-4.658-0.932-10.713 4.658-11.179 3.261 0 6.987-0.932 9.782 0.932 0.466-1.863 2.329-4.192 4.657-4.192M157.904 16.215l0.932 0.466c4.658 0.932 6.987 7.453 12.11 5.124 0 3.261 0.466 6.521-0.466 8.85-1.397 3.726-5.59 3.726-8.85 3.726-31.208-1.863-49.374 11.179-68.471 22.358-5.124 3.261-10.713 5.59-14.906 9.782-20.029 18.632-41.921 35.866-47.045 70.335l-4.192 38.195c-0.466 4.192-5.124 8.384-4.192 13.508l3.26 22.824c-3.261-3.261-5.124 0.932-4.192 2.795 0.466 1.397 2.329 6.055 5.124 1.863 3.726 6.987 7.453 20.495 12.576 26.55 15.837 18.632 36.332 35.4 53.101 52.169 4.192-0.932 7.453-0.932 8.384-3.727 1.397 2.795-1.397 5.59-3.726 6.056 7.453 4.658 15.837 8.85 27.016 9.781 14.44 0.932 27.948 3.261 40.524 6.522 6.521-1.863 13.042-2.795 20.029-3.261 2.329 0 3.726-3.726 6.521-4.658l0.466-4.658c2.795 4.192 2.329-1.397 0.466-4.192 3.261 2.795 4.192 5.124 5.589 6.987 0-1.397 3.726-6.521 3.727-0.466l0.931-6.055c1.397-0.932 1.863 5.124 3.261 0.931 1.397-4.192 4.192-0.932 6.987-2.329-0.932 1.863-0.466 5.59 2.794 3.261l3.727-3.261c2.329 5.59 6.055 3.261 7.918 2.329 20.495-13.042 40.99-28.413 60.553-43.784l-0.466 6.055 2.329-7.453c2.329 2.329 4.192 0.466 5.124-0.931 2.795-4.658 6.521-9.316 12.577-13.508-7.453 20.029-16.303 35.866-27.482 48.908l-4.658 5.59c0 3.261-0.932 7.453-4.658 7.918-1.863 0.466-5.59-0.932-8.384 1.863-1.397 1.863 3.261 5.59-0.466 2.795-3.261-2.329-6.521 0-10.248 0.932-2.795 0.932 1.863 3.726 2.795 5.589 0.932 1.863 1.863 3.726 1.398 6.056l-5.124-5.59c-6.055 3.261-9.782 9.316-14.906 13.974-2.329 1.863-1.397 5.124-1.397 7.918-3.261 0-6.987-0.932-8.85 0.932-1.397 1.863-0.932 4.658-0.932 7.453-4.658-0.466-5.124-7.453-9.315-6.056-4.192 0.932-8.85 1.397-12.577 3.727 2.795 5.59-4.658 2.329-3.726 3.26-6.987-4.192-13.042-7.453-20.495-4.658-15.837-5.124-35.4-2.795-49.84-0.931 0-2.329 0.466-4.658-0.466-5.124-0.932 2.329-3.726 1.397-3.26 1.397-8.85-6.055-17.7-9.782-27.016-14.905-8.384 0.932-16.303-3.261-18.632-5.59-6.521-6.055-13.974-2.795-20.029-4.192-13.042-3.261-17.7-16.769-19.098-26.084-0.932-4.658-4.658-6.521-6.055-6.056-6.055-19.563-15.371-37.263-22.824-55.429-1.863-4.658-1.397-9.316-1.397-14.44 2.329 0.932 4.658 0.466 4.192-2.794-2.329-15.371-7.918-27.016-13.974-38.195 3.261-15.837 3.726-34.469 11.179-48.443 6.521-12.576 18.632-19.098 27.016-29.811 2.795-3.726 2.795-8.85 5.59-12.11 9.316-9.316 18.632-19.098 28.879-27.482 4.658-3.726 10.247 0 17.234-1.397 2.329-8.384 11.645-15.837 20.495-13.508 3.726 0.932 11.179-8.85 13.508-9.782 3.726-1.397 1.863 3.726 1.863 6.987 8.85-6.987 20.961-10.713 32.14-14.906" fill="#000000" fill-rule="nonzero" stroke="none" stroke-width="1" stroke-linecap="butt" stroke-linejoin="miter" stroke-miterlimit="10" stroke-dasharray="" stroke-dashoffset="0" font-family="none" font-weight="none" font-size="none" text-anchor="none" style="mix-blend-mode: normal" data-fill-palette-color="tertiary"></path></g><g transform="matrix(1,0,0,1,103.40347691499997,90)"><svg viewBox="0 0 113.19304617000007 180" height="180" width="113.19304617000007"><g><svg viewBox="0 0 113.19304617000007 180" height="180" width="113.19304617000007"><g><svg viewBox="0 0 192 305.31910898568566" height="180" width="113.19304617000007"><g transform="matrix(1,0,0,1,0,174.37961635416156)"><svg viewBox="0 0 192 130.9394926315241" height="130.9394926315241" width="192"><g id="textblocktransform"><svg viewBox="0 0 192 130.9394926315241" height="130.9394926315241" width="192" id="textblock"><g><svg viewBox="0 0 192 97.8173719376392" height="97.8173719376392" width="192"><g transform="matrix(1,0,0,1,0,0)"><svg width="192" viewBox="3.799999952316284 -35.900001525878906 89.78999328613281 45.75" height="97.8173719376392" data-palette-color="#39833d"><path d="M28.45-33.7L28.45-12.8Q28.45-6.3 25.18-2.95 21.9 0.4 16.05 0.4L16.05 0.4Q10.3 0.4 7.05-2.88 3.8-6.15 3.8-12.4L3.8-12.4 3.8-33.7 7.85-33.7 7.85-12.45Q7.85-7.8 10.08-5.6 12.3-3.4 16.05-3.4L16.05-3.4Q24.4-3.4 24.4-12.7L24.4-12.7 24.4-33.7 28.45-33.7ZM39.8-3.85L39.8 9.85 35.9 9.85 35.9-25.35 39.8-25.35 39.8-21.5Q42.45-25.75 47.65-25.75L47.65-25.75Q52.7-25.75 55.57-22.08 58.45-18.4 58.45-12.9L58.45-12.9Q58.45-7.05 55.42-3.33 52.4 0.4 47.55 0.4L47.55 0.4Q42.55 0.4 39.8-3.85L39.8-3.85ZM39.8-12.65L39.8-12.65Q39.8-7.8 42.05-5.5 44.3-3.2 47.05-3.2L47.05-3.2Q50.25-3.2 52.3-5.73 54.35-8.25 54.35-12.9L54.35-12.9Q54.35-17.05 52.35-19.6 50.35-22.15 47.3-22.15 44.25-22.15 42.02-19.93 39.8-17.7 39.8-12.65ZM72-3.05L72-3.05Q74.7-3.05 76.3-4.58 77.9-6.1 77.9-8.45L77.9-8.45 77.9-11.7 73.5-11.7Q70.3-11.7 68.7-10.45 67.09-9.2 67.09-7.3 67.09-5.4 68.34-4.23 69.59-3.05 72-3.05ZM77.95 0L77.95-3Q76 0.25 70.84 0.25L70.84 0.25Q67.3 0.25 65.12-1.85 62.95-3.95 62.95-7.15L62.95-7.15Q62.95-10.8 65.72-12.83 68.5-14.85 73.3-14.85L73.3-14.85 77.9-14.85 77.9-16.15Q77.9-19.15 76.55-20.68 75.2-22.2 72-22.2L72-22.2Q67.95-22.2 64.8-20.05L64.8-20.05 64.8-24Q67.65-25.75 72.3-25.75L72.3-25.75Q81.84-25.75 81.84-16.05L81.84-16.05 81.84 0 77.95 0ZM92.99-25.35L92.99 2.75Q92.99 6.05 91.27 7.9 89.54 9.75 86.49 9.75L86.49 9.75Q84.84 9.75 82.89 9L82.89 9 82.89 5.5Q84.79 6.3 86.29 6.3L86.29 6.3Q89.09 6.3 89.09 2.65L89.09 2.65 89.09-25.35 92.99-25.35ZM92.84-35.15Q93.59-34.4 93.59-33.3 93.59-32.2 92.84-31.48 92.09-30.75 90.99-30.75 89.89-30.75 89.17-31.48 88.44-32.2 88.44-33.3 88.44-34.4 89.17-35.15 89.89-35.9 90.99-35.9 92.09-35.9 92.84-35.15Z" opacity="1" transform="matrix(1,0,0,1,0,0)" fill="#000000" class="undefined-text-0" data-fill-palette-color="primary" id="text-0"></path></svg></g></svg></g><g transform="matrix(1,0,0,1,0,112.09127412026726)"><svg viewBox="0 0 192 18.848218511256846" height="18.848218511256846" width="192"><g transform="matrix(1,0,0,1,0,0)"><svg width="192" viewBox="7.079999923706055 -34.959999084472656 361.08001708984375 35.45000076293945" height="18.848218511256846" data-palette-color="#248330"><path d="M17.97-31.03L11.23-31.03 11.23-3.66 16.28-3.66Q17.38-3.66 18.1-3.69 18.82-3.71 20.06-3.83 21.29-3.96 22.18-4.2 23.07-4.44 24.21-4.91 25.34-5.37 26.22-6.03 27.1-6.69 27.98-7.71 28.86-8.74 29.52-10.03L29.52-10.03Q31.13-13.13 31.13-17.58L31.13-17.58Q31.13-20.65 30.24-23.13 29.35-25.61 27.87-27.16 26.39-28.71 24.72-29.61 23.05-30.52 21.22-30.83L21.22-30.83Q20.14-31.03 17.97-31.03L17.97-31.03ZM7.08-34.69L17.82-34.69Q21.19-34.69 23.95-34.02 26.71-33.35 28.58-32.13 30.44-30.91 31.79-29.37 33.13-27.83 33.87-25.94 34.62-24.05 34.96-22.22 35.3-20.39 35.3-18.41L35.3-18.41Q35.3-16.14 34.96-14.04 34.62-11.94 33.78-9.77 32.93-7.59 31.63-5.87 30.32-4.15 28.25-2.77 26.17-1.39 23.54-0.73L23.54-0.73Q22.17-0.39 20.48-0.22 18.8-0.05 17.7-0.02 16.6 0 14.6 0L14.6 0 7.08 0 7.08-34.69ZM46.41-24.12L47.17-22.31Q50.22-24.58 53.9-24.58L53.9-24.58Q56.44-24.58 58.52-23.63L58.52-23.63 57.3-20.43Q55.39-21.17 53.34-21.17L53.34-21.17Q50.29-21.17 47.6-19.48L47.6-19.48 47.6 0 43.6 0 43.6-24.12 46.41-24.12ZM73.53-24.58L73.53-24.58Q75.29-24.58 76.69-24.16 78.1-23.73 79.02-23.07 79.95-22.41 80.62-21.35 81.29-20.29 81.65-19.3 82-18.31 82.2-16.92 82.39-15.53 82.44-14.5 82.49-13.48 82.49-12.08L82.49-12.08 82.49-10.18 65.91-10.18Q65.91-8.86 66.51-7.56 67.11-6.25 68.2-5.16 69.28-4.08 71.05-3.39 72.82-2.71 74.97-2.71L74.97-2.71Q77.51-2.71 80.46-3.59L80.46-3.59 81.17-0.85Q77.24 0.49 73.46 0.49L73.46 0.49Q70.8 0.49 68.73-0.22 66.67-0.93 65.41-2.06 64.16-3.2 63.35-4.79 62.54-6.37 62.24-7.95 61.93-9.52 61.93-11.28L61.93-11.28Q61.93-13.99 62.59-16.24 63.25-18.48 64.37-20.01 65.5-21.53 67-22.58 68.5-23.63 70.15-24.11 71.8-24.58 73.53-24.58ZM72.68-21.12L72.68-21.12Q70.53-21.12 68.98-19.93 67.43-18.75 66.72-16.99 66.01-15.23 66.01-13.21L66.01-13.21 78.61-13.21Q78.61-21.12 72.68-21.12ZM98.04-24.58L98.04-24.58Q100.72-24.58 102.59-23.96 104.46-23.34 105.47-22.14 106.49-20.95 106.93-19.48 107.37-18.02 107.37-16.11L107.37-16.11 107.37 0 104.53 0 103.61-2.2Q100.65 0.49 96.82 0.49L96.82 0.49Q93.4 0.49 91.03-1.57 88.66-3.64 88.66-6.4L88.66-6.4Q88.66-7.86 89.2-9.03 89.74-10.21 90.75-10.99 91.76-11.77 93.06-12.32 94.35-12.87 96.07-13.16 97.8-13.45 99.53-13.57 101.26-13.7 103.34-13.7L103.34-13.7 103.34-15.6Q103.34-16.43 103.28-17.04 103.22-17.65 102.87-18.51 102.53-19.36 101.95-19.91 101.36-20.46 100.19-20.86 99.02-21.26 97.4-21.26L97.4-21.26Q94.91-21.26 90.96-20.17L90.96-20.17 90.2-23.1Q94.21-24.58 98.04-24.58ZM103.34-5.13L103.34-10.67 101.85-10.67Q100.46-10.67 99.43-10.62 98.41-10.57 97.03-10.34 95.65-10.11 94.77-9.69 93.89-9.28 93.27-8.48 92.64-7.69 92.64-6.59L92.64-6.59Q92.64-5.05 94.19-3.86 95.74-2.66 97.89-2.66L97.89-2.66Q101.04-2.66 103.34-5.13L103.34-5.13ZM125.8-20.9L125.8-20.9Q123.7-20.9 120.16-19.04L120.16-19.04 120.16 0 116.15 0 116.15-24.12 118.96-24.12 119.81-22.12Q124.18-24.58 127.38-24.58L127.38-24.58Q131.07-24.58 133.17-21.9L133.17-21.9Q137.95-24.56 141.74-24.56L141.74-24.56Q143.57-24.56 144.96-24.06 146.35-23.56 147.22-22.69 148.09-21.83 148.64-20.52 149.18-19.21 149.39-17.76 149.6-16.31 149.6-14.48L149.6-14.48 149.6 0 145.6 0 145.6-14.75Q145.6-15.19 145.57-15.56 145.55-15.94 145.45-16.61 145.35-17.29 145.16-17.81 144.96-18.33 144.58-18.95 144.2-19.56 143.67-19.96 143.13-20.36 142.3-20.63 141.47-20.9 140.44-20.9L140.44-20.9Q138.2-20.9 134.51-18.99L134.51-18.99Q134.85-17.55 134.85-14.31L134.85-14.31 134.85 0 130.85 0 130.85-14.84Q130.85-15.48 130.8-16.05 130.75-16.63 130.46-17.58 130.17-18.53 129.68-19.2 129.19-19.87 128.18-20.39 127.16-20.9 125.8-20.9ZM169.83-31.03L169.83-34.69 197.18-34.69 197.18-31.03 185.58-31.03 185.58 0 181.43 0 181.43-31.03 169.83-31.03ZM212.21-24.58L212.21-24.58Q217.22-24.58 220.45-21.39 223.69-18.19 223.69-12.55L223.69-12.55Q223.69-6.57 220.38-3.04 217.07 0.49 211.82 0.49L211.82 0.49Q206.82 0.49 203.64-2.82 200.47-6.13 200.47-11.79L200.47-11.79Q200.47-17.63 203.71-21.11 206.94-24.58 212.21-24.58ZM211.87-21.17L211.87-21.17Q208.87-21.17 206.62-18.85 204.38-16.53 204.38-12.48L204.38-12.48Q204.38-8.45 206.57-5.69 208.77-2.93 212.26-2.93L212.26-2.93Q215.49-2.93 217.63-5.37 219.78-7.81 219.78-11.74L219.78-11.74Q219.78-13.99 219.09-15.82 218.39-17.65 217.26-18.8 216.12-19.95 214.73-20.56 213.34-21.17 211.87-21.17ZM262.97-34.96L262.97-34.96Q268.83-34.96 274.12-32.01L274.12-32.01 272.49-28.91Q270.63-29.88 268.17-30.59 265.7-31.3 263.19-31.3L263.19-31.3Q260.62-31.3 258.24-30.35 255.86-29.39 254.01-27.67 252.15-25.95 251.04-23.33 249.93-20.7 249.93-17.58L249.93-17.58Q249.93-13.45 251.76-10.16 253.59-6.86 256.81-5.03 260.04-3.2 264.02-3.2L264.02-3.2Q268.73-3.2 271.68-6.03L271.68-6.03 271.68-14.89 261.82-14.89 261.82-18.31 275.71-18.31 275.71-4.69Q275.05-3.93 274.18-3.22 273.32-2.51 271.77-1.59 270.22-0.66 267.95-0.09 265.68 0.49 263.04 0.49L263.04 0.49Q259.57 0.49 256.65-0.55 253.74-1.59 251.76-3.32 249.78-5.05 248.42-7.36 247.05-9.67 246.41-12.18 245.78-14.7 245.78-17.31L245.78-17.31Q245.78-20.04 246.47-22.62 247.17-25.2 248.61-27.44 250.05-29.69 252.06-31.36 254.08-33.03 256.89-34 259.69-34.96 262.97-34.96ZM286.57-24.12L287.33-22.31Q290.38-24.58 294.07-24.58L294.07-24.58Q296.61-24.58 298.68-23.63L298.68-23.63 297.46-20.43Q295.56-21.17 293.51-21.17L293.51-21.17Q290.45-21.17 287.77-19.48L287.77-19.48 287.77 0 283.76 0 283.76-24.12 286.57-24.12ZM313.84-24.58L313.84-24.58Q318.84-24.58 322.08-21.39 325.31-18.19 325.31-12.55L325.31-12.55Q325.31-6.57 322.01-3.04 318.7 0.49 313.45 0.49L313.45 0.49Q308.44 0.49 305.27-2.82 302.1-6.13 302.1-11.79L302.1-11.79Q302.1-17.63 305.33-21.11 308.57-24.58 313.84-24.58ZM313.5-21.17L313.5-21.17Q310.49-21.17 308.25-18.85 306-16.53 306-12.48L306-12.48Q306-8.45 308.2-5.69 310.4-2.93 313.89-2.93L313.89-2.93Q317.11-2.93 319.26-5.37 321.41-7.81 321.41-11.74L321.41-11.74Q321.41-13.99 320.71-15.82 320.02-17.65 318.88-18.8 317.75-19.95 316.35-20.56 314.96-21.17 313.5-21.17ZM338.52 0L329.95-24.12 334.22-24.12 340.77-3.88 346.97-24.12 350.9-24.12 357.34-3.91 363.89-24.12 368.16-24.12 359.35 0 355.32 0 348.9-19.56 342.55 0 338.52 0Z" opacity="1" transform="matrix(1,0,0,1,0,0)" fill="#000000" class="undefined-text-1" data-fill-palette-color="secondary" id="text-1"></path></svg></g></svg></g></svg></g></svg></g><g transform="matrix(1,0,0,1,36.672,0)"><svg viewBox="0 0 118.656 160.1057141715335" height="160.1057141715335" width="118.656"><g><svg xmlns="http://www.w3.org/2000/svg" xmlns:xlink="http://www.w3.org/1999/xlink" version="1.1" x="0" y="0" viewBox="0 0 74.1113052368164 100.0003662109375" enable-background="new 0 0 74.11 100" xml:space="preserve" width="118.656" height="160.1057141715335" class="icon-icon-0" data-fill-palette-color="accent" id="icon-0"><g fill="#2d6e27" data-fill-palette-color="accent"><path d="M18.097 22.218c0.693 2.759-0.427 5.502-2.626 6.156-2.191 0.652-4.675-1.178-5.417-4.127-0.892-2.995 1.478-13.728 1.478-13.728S17.29 19.561 18.097 22.218z" fill="#000000" data-fill-palette-color="accent"></path><path d="M27.847 32.956c-0.911 2.538-3.361 4.022-5.549 3.134-2.194-0.88-3.237-3.848-2.239-6.453 0.935-2.694 8.533-9.238 8.533-9.238S28.637 30.378 27.847 32.956z" fill="#000000" data-fill-palette-color="accent"></path><path d="M33.248 45.991c-0.641 2.604-2.9 4.348-5.178 3.717-2.272-0.628-3.631-3.466-2.909-6.156 0.65-2.776 7.544-10.049 7.544-10.049S33.753 43.37 33.248 45.991z" fill="#000000" data-fill-palette-color="accent"></path><path d="M40.043 58.155c-0.323 2.635-2.337 4.66-4.672 4.331-2.329-0.327-4.034-2.971-3.624-5.723 0.313-2.836 6.376-10.787 6.376-10.787S40.216 55.519 40.043 58.155z" fill="#000000" data-fill-palette-color="accent"></path><path d="M8.262 39.868c2.434 1.706 5.239 1.179 6.32-0.987 1.073-2.169 0.091-5.155-2.224-6.862C10.035 30.422 0 27.798 0 27.798S5.732 38.269 8.262 39.868z" fill="#000000" data-fill-palette-color="accent"></path><path d="M14.532 54.995c2.612 1.45 5.351 0.607 6.175-1.666 0.827-2.279-0.473-5.142-2.956-6.604-2.478-1.347-12.733-2.944-12.733-2.944S11.818 53.663 14.532 54.995z" fill="#000000" data-fill-palette-color="accent"></path><path d="M22.606 69.437c2.794 1.136 5.399-0.057 5.923-2.423 0.525-2.375-1.125-5.052-3.763-6.222-2.622-1.038-13.017-1.526-13.017-1.526S19.71 68.447 22.606 69.437z" fill="#000000" data-fill-palette-color="accent"></path><path d="M48.294 69.096c0.031 2.639-1.629 4.927-3.992 4.97-2.342 0.03-4.406-2.345-4.378-5.11-0.096-2.854 4.933-11.467 4.933-11.467S48.068 66.499 48.294 69.096z" fill="#000000" data-fill-palette-color="accent"></path><path d="M32.708 82.821c2.942 0.75 5.357-0.846 5.502-3.26 0.16-2.438-1.854-4.852-4.643-5.651-2.747-0.65-13.156 0.148-13.156 0.148S29.645 82.279 32.708 82.821z" fill="#000000" data-fill-palette-color="accent"></path><path d="M72.775 99.921c-14.424-5.55-27.001-15.413-36.452-27.534C26.8 60.266 20.065 46.183 15.472 31.569c-0.167-0.541 0.092-1.099 0.58-1.247l0 0c0.487-0.148 1.015 0.163 1.18 0.696l0 0c4.536 14.438 11.189 28.328 20.54 40.227 9.285 11.903 21.573 21.529 35.674 26.958 0.515 0.203 0.789 0.754 0.611 1.231l0 0C73.877 99.912 73.304 100.13 72.775 99.921L72.775 99.921z" fill="#000000" data-fill-palette-color="accent"></path></g><g fill="#2d6e27" data-fill-palette-color="accent"><path d="M62.6 9.624c-0.882 1.857-2.75 2.904-4.303 2.284-1.542-0.613-2.121-2.816-1.156-4.854C58.027 4.886 64.407 0 64.407 0S63.331 7.775 62.6 9.624z" fill="#000000" data-fill-palette-color="accent"></path><path d="M63.407 19.978c-1.613 1.032-3.698 0.857-4.591-0.599-0.922-1.459-0.188-3.644 1.53-4.685 1.759-1.143 9.006-1.27 9.006-1.27S64.946 18.839 63.407 19.978z" fill="#000000" data-fill-palette-color="accent"></path><path d="M61.215 29.654c-1.422 1.271-3.508 1.442-4.626 0.153-1.145-1.286-0.785-3.563 0.759-4.855 1.529-1.418 8.676-2.614 8.676-2.614S62.539 28.276 61.215 29.654z" fill="#000000" data-fill-palette-color="accent"></path><path d="M60.661 39.531c-1.203 1.492-3.207 2.006-4.543 0.921-1.323-1.079-1.373-3.383-0.06-4.914 1.285-1.656 8.128-3.993 8.128-3.993S61.738 37.941 60.661 39.531z" fill="#000000" data-fill-palette-color="accent"></path><path d="M48.992 15.466c0.659 2.127 2.528 3.018 4.108 2.198 1.557-0.833 2.332-3.001 1.767-5.053-0.613-1.955-5.025-8.168-5.025-8.168S48.176 13.356 48.992 15.466z" fill="#000000" data-fill-palette-color="accent"></path><path d="M46.259 27.545c0.996 2.001 2.986 2.572 4.411 1.503 1.403-1.079 1.808-3.345 0.938-5.284-0.946-1.835-6.234-7.333-6.234-7.333S45.093 25.594 46.259 27.545z" fill="#000000" data-fill-palette-color="accent"></path><path d="M45.561 39.939c1.304 1.807 3.385 2.038 4.594 0.748 1.224-1.297 1.22-3.598 0.045-5.367-1.226-1.648-7.353-6.22-7.353-6.22S44.087 38.219 45.561 39.939z" fill="#000000" data-fill-palette-color="accent"></path><path d="M61.737 49.402c-0.937 1.675-2.85 2.505-4.33 1.644-1.486-0.854-1.904-3.12-0.861-4.848 0.997-1.845 7.358-5.294 7.358-5.294S62.548 47.648 61.737 49.402z" fill="#000000" data-fill-palette-color="accent"></path><path d="M46.902 52.242c1.583 1.562 3.658 1.462 4.657-0.006 0.993-1.473 0.621-3.744-0.828-5.292-1.479-1.424-8.275-4.908-8.275-4.908S45.181 50.792 46.902 52.242z" fill="#000000" data-fill-palette-color="accent"></path><path d="M64.979 78.329c-6.371-9.34-10.425-20.146-11.957-31.316-1.539-11.178-0.151-22.721 3.834-33.261 0.138-0.393 0.55-0.593 0.893-0.46l0 0c0.348 0.135 0.497 0.546 0.362 0.931l0 0c-8.123 20.736-4.498 45.102 7.961 63.33 0.232 0.328 0.185 0.762-0.106 0.989l0 0C65.672 78.77 65.222 78.672 64.979 78.329L64.979 78.329z" fill="#000000" data-fill-palette-color="accent"></path></g></svg></g></svg></g><g></g></svg></g></svg></g></svg></g></svg></g><defs></defs></svg><rect width="320" height="360" fill="none" stroke="none" visibility="hidden"></rect></g></svg></g></svg>